<?xml version="1.0" standalone="no"?>
<!DOCTYPE svg PUBLIC "-//W3C//DTD SVG 1.1//EN" "http://www.w3.org/Graphics/SVG/1.1/DTD/svg11.dtd" >
<svg xmlns="http://www.w3.org/2000/svg">
<metadata>
This is a custom SVG webfont generated by Font Squirrel.
Copyright   : Copyright  1992 1997 DoubleAlex Design Studio All rights reserved
</metadata>
<defs>
<font id="HelveticaCYPlain" horiz-adv-x="934" >
<font-face units-per-em="2048" ascent="1638" descent="-410" />
<missing-glyph horiz-adv-x="467" />
<glyph unicode=" "  horiz-adv-x="467" />
<glyph unicode="&#x09;" horiz-adv-x="467" />
<glyph unicode="&#xa0;" horiz-adv-x="467" />
<glyph unicode="!" horiz-adv-x="467" d="M209 0v213h141v-213h-141zM209 758v735h141v-735l-37 -416h-69z" />
<glyph unicode="&#x22;" horiz-adv-x="596" d="M88 1223v227h158v-227l-45 -277h-68zM354 1223v227h158v-227l-45 -277h-68z" />
<glyph unicode="#" d="M23 430v164h194l45 313h-176v166h199l61 398h129l-59 -398l207 -2l59 400h133l-59 -398h155v-166h-180l-45 -313h168v-164h-197l-63 -430h-127l61 430h-206l-66 -430h-127l61 430h-167zM348 594h207l45 313h-207z" />
<glyph unicode="$" d="M55 426h129q16 -153 39 -205q48 -108 185 -141v584q-168 66 -230 125q-98 93 -98 267q0 167 81 275q86 115 247 137v109h100v-111q156 -12 245 -125q83 -106 83 -266v-10h-136q-5 98 -42 174q-49 100 -133 100q-9 0 -17 -2v-538q214 -78 268 -127q94 -85 94 -285 q0 -184 -88 -298q-96 -124 -274 -132v-213h-100v209q-152 34 -214 85q-139 114 -139 388zM208 1075q0 -92 56 -166t144 -94v524q-86 -1 -146 -91q-54 -81 -54 -173zM508 82q219 57 219 301q0 116 -73 183q-47 43 -146 79v-563z" />
<glyph unicode="%" horiz-adv-x="1493" d="M49 1053q0 133 75 236q84 114 212 114t212 -114q75 -103 75 -236t-75 -237q-83 -114 -212 -114t-212 114q-75 104 -75 237zM166 1053q0 -80 44 -149q50 -79 126 -79t126 79q44 69 44 149t-44 149q-50 78 -126 78t-126 -78q-44 -69 -44 -149zM358 -41l664 1491h113 l-664 -1491h-113zM868 309q0 133 75 236q83 114 212 114t212 -114q75 -103 75 -236t-75 -236q-84 -114 -212 -114t-212 114q-75 103 -75 236zM985 309q0 -79 44 -148q51 -79 126 -79t126 79q44 69 44 148q0 80 -44 149q-50 79 -126 79t-126 -79q-44 -69 -44 -149z" />
<glyph unicode="&#x26;" horiz-adv-x="1120" d="M88 358q0 222 178 375l86 74l-57 96q-69 116 -69 234q0 128 79 220q83 97 209 97q118 0 199 -99q76 -93 76 -213q0 -182 -146 -298l-88 -70l219 -332q53 143 53 232v8h136v-13q0 -161 -99 -358l205 -311h-184l-105 152q-107 -115 -154 -146q-81 -53 -202 -53 q-162 0 -254 125q-82 112 -82 280zM227 374q0 -99 57 -181q64 -93 159 -93q79 0 148 56q33 26 114 120l-271 410q-103 -85 -123 -107q-84 -94 -84 -205zM366 1132q0 -106 107 -251q52 24 104 83q71 81 71 171q0 75 -34 130q-41 66 -111 66q-71 0 -108 -68q-29 -54 -29 -131z " />
<glyph unicode="'" horiz-adv-x="322" d="M80 1223v227h158v-227l-45 -277h-68z" />
<glyph unicode="(" horiz-adv-x="559" d="M123 528q0 241 73 501t199 464h94q-227 -463 -227 -965t227 -964h-94q-125 202 -198.5 463t-73.5 501z" />
<glyph unicode=")" horiz-adv-x="559" d="M63 -436q228 462 228 964t-228 965h95q124 -201 198 -464t74 -501q0 -236 -74 -500t-198 -464h-95z" />
<glyph unicode="*" horiz-adv-x="653" d="M68 1245l30 121l178 -80l-8 230h105l-6 -230l174 76l34 -127l-180 -53l113 -185l-82 -71l-104 190l-109 -188l-82 73l117 181z" />
<glyph unicode="+" horiz-adv-x="981" d="M84 430v117h348v348h117v-348h348v-117h-348v-348h-117v348h-348z" />
<glyph unicode="," horiz-adv-x="467" d="M145 -213q103 64 103 213h-101v213h175v-213q0 -126 -63 -218q-53 -78 -114 -89v94z" />
<glyph unicode="-" horiz-adv-x="559" d="M78 512v129h399v-129h-399z" />
<glyph unicode="." horiz-adv-x="467" d="M145 0v213h177v-213h-177z" />
<glyph unicode="/" horiz-adv-x="467" d="M-14 -43l399 1493h92l-397 -1493h-94z" />
<glyph unicode="0" d="M72 702q0 750 389 750q391 0 391 -750q0 -749 -391 -749q-389 0 -389 749zM217 698q0 -598 244 -598q246 0 246 598t-246 598q-244 0 -244 -598z" />
<glyph unicode="1" d="M172 1057v106q177 34 224 78q44 41 87 211h101v-1452h-142v1057h-270z" />
<glyph unicode="2" d="M57 0q19 234 58 328q63 150 254 284l176 123q164 115 164 303q0 112 -57 189q-63 86 -171 86q-137 0 -202 -121q-52 -95 -52 -244h-143q0 504 397 504q178 0 282 -131q95 -119 95 -293q0 -258 -240 -424l-192 -133q-52 -36 -115 -111q-97 -115 -96 -202h633v-158h-791z " />
<glyph unicode="3" d="M53 422h142q0 -106 31 -184q56 -142 198 -142q274 0 274 328q0 259 -266 259q-29 0 -61 -3v133q153 0 213 43q75 54 75 207q0 106 -57 174q-61 74 -164 74q-117 0 -174 -112q-43 -86 -43 -216h-141q6 469 364 469q182 0 280 -118q91 -110 91 -296q0 -207 -143 -288 q178 -97 178 -349q0 -187 -103 -313q-111 -135 -294 -135q-209 0 -314 150q-86 123 -86 319z" />
<glyph unicode="4" d="M47 369v166l543 917h110v-940h172v-143h-172v-369h-141v369h-512zM180 512h379v649z" />
<glyph unicode="5" d="M59 356h152q32 -252 252 -252q120 0 185 121q54 98 54 228q0 147 -50 239q-64 117 -199 117q-91 0 -141 -44q-16 -14 -83 -106h-133l92 793h615v-160h-494l-51 -422q83 86 211 86q144 0 251 -97q142 -129 142 -386q0 -200 -98 -349q-113 -171 -303 -171q-230 0 -335 179 q-58 98 -67 224z" />
<glyph unicode="6" d="M66 721q0 366 138 563q118 168 296 168q142 0 240 -121q90 -111 98 -258h-146q0 91 -55 160q-59 74 -148 74q-139 0 -219 -200q-61 -153 -61 -316q0 -43 4 -58q88 172 281 172q174 0 276 -145q92 -130 92 -318q0 -199 -95 -335q-108 -154 -298 -154q-236 0 -330 227 q-73 176 -73 541zM229 430q0 -120 60 -221q70 -119 182 -119q115 0 185 113q59 97 59 219q0 136 -52 229q-64 115 -190 115q-117 0 -186 -114q-58 -97 -58 -222z" />
<glyph unicode="7" d="M78 1300v152h794v-154l-131 -231q-68 -121 -153 -322q-150 -358 -199 -745h-160q57 274 91 391q50 170 126 336l277 573h-645z" />
<glyph unicode="8" d="M63 377q0 138 40 221q43 90 153 164q-84 61 -118 132q-32 68 -32 175q0 157 96 268q100 115 255 115q173 0 269 -106q93 -103 93 -277q0 -202 -149 -303q75 -25 131 -127q61 -111 61 -252q0 -153 -106 -286q-118 -148 -291 -148q-184 0 -298 134q-104 123 -104 290z M217 387q0 -108 63 -194q70 -95 175 -95q116 0 190 102q64 89 64 193q0 122 -62 210q-69 99 -186 99q-123 0 -188 -100q-56 -85 -56 -215zM254 1071q0 -106 51 -177q58 -79 160 -79q95 0 154 81q53 73 53 171t-54 168q-58 78 -153 78q-96 0 -156 -75q-55 -69 -55 -167z" />
<glyph unicode="9" d="M63 956q0 199 95 338q109 158 299 158q233 0 331 -268q66 -180 66 -463q0 -289 -68 -481q-101 -287 -337 -287q-183 0 -261 96q-100 122 -100 273h145q0 -95 53 -158q56 -66 150 -66q143 0 219 199q62 163 62 305q0 43 -4 60q-39 -74 -112 -121t-155 -47q-187 0 -291 142 q-92 126 -92 320zM211 979q0 -138 47 -231q61 -119 186 -119q115 0 188 112q64 99 64 220q0 132 -54 229q-67 119 -189 119q-94 0 -163 -82q-79 -93 -79 -248z" />
<glyph unicode=":" horiz-adv-x="467" d="M184 0v213h174v-213h-174zM184 862v213h174v-213h-174z" />
<glyph unicode=";" horiz-adv-x="467" d="M184 -213q99 64 103 213h-101v213h174v-213q0 -126 -62 -218q-53 -78 -114 -89v94zM186 844v213h174v-213h-174z" />
<glyph unicode="&#x3c;" horiz-adv-x="981" d="M76 403v144l821 424v-164l-664 -332l664 -332v-163z" />
<glyph unicode="=" horiz-adv-x="981" d="M84 256v117h813v-117h-813zM84 604v117h813v-117h-813z" />
<glyph unicode="&#x3e;" horiz-adv-x="981" d="M84 -20v163l657 332l-657 332v164l821 -424v-144z" />
<glyph unicode="?" d="M129 1032v8q0 203 76 325q92 148 284 148q180 0 275 -108q90 -102 90 -284q0 -83 -16 -138q-28 -98 -187 -276q-94 -106 -94 -211v-97h-154v123q0 125 148 299l67 80q40 50 54 86q29 73 29 143q0 96 -52 167q-58 79 -151 79q-152 0 -201 -149q-18 -55 -23 -195h-145z M403 0v213h154v-213h-154z" />
<glyph unicode="@" horiz-adv-x="1704" d="M55 537q0 107 23 206q74 320 274 530q225 236 533 236q144 0 303 -79q164 -82 260 -213q148 -203 148 -461q0 -159 -78 -346q-91 -218 -250 -279q-55 -21 -125 -21q-52 0 -84 11q-97 33 -107 143q-39 -49 -52 -62q-83 -83 -189 -83q-52 0 -95 22q-107 55 -155 207 q-20 63 -20 141q0 58 12 121q44 231 192 363q106 95 227 95q92 0 158 -85q39 -50 49 -98l37 135h139l-161 -612q-11 -42 -11 -64q0 -38 23 -65t60 -27q10 0 22 2q133 38 211 193q67 134 67 287q0 27 -4 57q-26 195 -133 331q-53 67 -142 126q-161 106 -325 106 q-227 0 -412 -190q-166 -170 -225 -406q-23 -92 -23 -200q0 -466 394 -658q103 -50 219 -50q130 0 336 76l49 -137q-195 -89 -383 -89q-140 0 -264 50q-93 38 -211 135q-157 130 -217 277q-70 172 -70 375zM593 493q0 -83 41 -157q48 -87 125 -87q100 0 171 136 q35 68 63 177.5t28 184.5q0 124 -103 162q-24 9 -52 9q-63 0 -114 -41q-97 -79 -136 -234q-23 -92 -23 -150z" />
<glyph unicode="A" horiz-adv-x="1120" d="M29 0l444 1493h193l430 -1493h-176l-127 459h-461l-135 -459h-168zM369 606h381l-181 654z" />
<glyph unicode="B" horiz-adv-x="1120" d="M133 0v1493h481q176 0 277.5 -100t101.5 -275q0 -244 -157 -327q23 -13 69 -42q57 -38 94 -105q48 -87 48 -208q0 -202 -112 -329q-94 -107 -200 -107h-602zM291 150h393q106 0 163 99q46 80 46 189q0 264 -295 264h-307v-552zM291 852h323q222 0 222 248 q0 109 -64.5 176t-173.5 67h-307v-491z" />
<glyph unicode="C" horiz-adv-x="1212" d="M80 735q0 301 117 517q144 266 417 266q104 0 209 -54q84 -43 133 -100q104 -120 158 -332h-164q-104 334 -327 334q-203 0 -305 -227q-76 -170 -76 -404t76 -404q101 -227 305 -227q153 0 249 151q73 114 103 292h162q-39 -278 -181 -441q-49 -57 -133 -100 q-103 -53 -209 -53q-272 0 -417 271q-117 218 -117 511z" />
<glyph unicode="D" horiz-adv-x="1212" d="M150 0v1493h471q262 0 394 -248q105 -197 105 -483q0 -353 -142 -567q-129 -195 -312 -195h-516zM307 150h342q184 0 263 248q51 162 51 395q0 209 -74 358q-95 192 -283 192h-299v-1193z" />
<glyph unicode="E" horiz-adv-x="1120" d="M152 0v1493h849v-150h-692v-491h666v-150h-666v-552h721v-150h-878z" />
<glyph unicode="F" horiz-adv-x="1026" d="M152 0v1493h821v-150h-664v-491h582v-150h-582v-702h-157z" />
<glyph unicode="G" horiz-adv-x="1307" d="M74 729q0 304 133 523q161 266 459 266q270 0 405 -187q84 -117 105 -289h-156q-7 111 -96 209q-105 115 -258 115q-229 0 -343 -215q-90 -170 -90 -420q0 -240 95 -413q117 -214 338 -214q175 0 284 146q99 133 99 317v76h-373v150h514v-793h-100l-37 176 q-104 -112 -163 -151q-109 -72 -255 -72q-272 0 -427 251q-134 217 -134 525z" />
<glyph unicode="H" horiz-adv-x="1212" d="M139 0v1493h158v-641h627v641h157v-1493h-157v702h-627v-702h-158z" />
<glyph unicode="I" horiz-adv-x="467" d="M168 0v1493h158v-1493h-158z" />
<glyph unicode="J" horiz-adv-x="840" d="M29 317v158h157v-168q0 -82 46 -140q50 -63 130 -63q125 0 169 127q26 75 26 232v1030h158v-1141q0 -158 -84 -272q-94 -127 -252 -127q-198 0 -289 143q-61 96 -61 221z" />
<glyph unicode="K" horiz-adv-x="1120" d="M133 0v1493h158v-641h94l514 641l186 -1l-569 -706l596 -786h-201l-528 702h-92v-702h-158z" />
<glyph unicode="L" d="M135 0v1493h158v-1343h602v-150h-760z" />
<glyph unicode="M" horiz-adv-x="1399" d="M125 0v1493h225l352 -1270l353 1270h223v-1493h-162v1212l-334 -1212h-161l-334 1212v-1212h-162z" />
<glyph unicode="N" horiz-adv-x="1212" d="M127 0v1493h186l615 -1208v1208h157v-1493h-180l-620 1196v-1196h-158z" />
<glyph unicode="O" horiz-adv-x="1307" d="M63 725q0 311 135 531q161 262 457 262q292 0 453 -256q137 -217 137 -527q0 -305 -137 -524q-162 -258 -453 -258q-288 0 -451 251q-141 217 -141 521zM223 735q0 -240 96 -416q117 -215 336 -215q220 0 336 215q94 174 94 416t-94 416q-116 215 -336 215 q-219 0 -336 -215q-96 -176 -96 -416z" />
<glyph unicode="P" horiz-adv-x="1120" d="M154 0v1493h512q155 0 249 -84q121 -108 121 -346q0 -212 -115 -333q-93 -97 -206 -97h-404v-633h-157zM311 782h402q39 0 92 62q72 84 72 217q0 139 -82 220q-63 62 -131 62h-353v-561z" />
<glyph unicode="Q" horiz-adv-x="1307" d="M63 725q0 311 135 531q161 262 457 262q292 0 453 -256q137 -217 137 -527q0 -357 -172 -579l158 -156l-86 -106l-170 161q-160 -102 -320 -102q-288 0 -451 251q-141 217 -141 521zM223 735q0 -240 96 -416q117 -215 336 -215q82 0 203 70l-131 131l88 96l141 -137 q129 170 129 471q0 242 -94 416q-116 215 -336 215q-219 0 -336 -215q-96 -176 -96 -416z" />
<glyph unicode="R" horiz-adv-x="1212" d="M156 0v1493h549q209 0 302 -107q87 -100 87 -317q0 -168 -83 -276q-87 -112 -249 -140l407 -653h-182l-399 641h-275v-641h-157zM313 791h396q115 0 175 89q52 77 52 199q0 147 -80 214q-59 50 -149 50h-394v-552z" />
<glyph unicode="S" horiz-adv-x="1120" d="M80 473h147q0 -143 62 -237q86 -130 276 -130q140 0 226 74q90 79 90 217q0 160 -140 213l-338 113q-150 51 -217 138.5t-67 242.5q0 192 111.5 303t304.5 111q192 0 296 -78q173 -130 173 -360v-23h-154v21q0 136 -90 215q-86 75 -223 75q-114 0 -190.5 -73.5 t-76.5 -186.5q0 -167 217 -236l316 -100q112 -35 176 -132q63 -93 63 -212q0 -213 -128 -344t-341 -131q-240 0 -369 142q-124 137 -124 378z" />
<glyph unicode="T" horiz-adv-x="1026" d="M35 1343v150h960v-150h-399v-1343h-158v1343h-403z" />
<glyph unicode="U" horiz-adv-x="1212" d="M143 416v1077h158v-1077q0 -113 66 -200q85 -112 245 -112q163 0 248 112q66 87 66 200v1077h157v-1077q0 -161 -98 -292q-128 -171 -373 -171q-244 0 -372 171q-97 129 -97 292z" />
<glyph unicode="V" horiz-adv-x="1120" d="M51 1493h168l354 -1264l342 1264h168l-430 -1493h-170z" />
<glyph unicode="W" horiz-adv-x="1585" d="M37 1493h174l227 -1202l275 1202h168l272 -1202l231 1202h177l-314 -1493h-172l-280 1217l-277 -1217h-172z" />
<glyph unicode="X" horiz-adv-x="1120" d="M37 0l430 766l-399 727h190l311 -571l312 571h192l-409 -727l426 -766h-195l-326 608l-338 -608h-194z" />
<glyph unicode="Y" horiz-adv-x="1120" d="M23 1493h192l354 -725l349 725h192l-461 -909v-584h-160v584z" />
<glyph unicode="Z" horiz-adv-x="1026" d="M47 0v164l746 1179h-695v150h879v-174l-744 -1169h746v-150h-932z" />
<glyph unicode="[" horiz-adv-x="467" d="M109 -438v1931h311v-154h-170v-1624h170v-153h-311z" />
<glyph unicode="\" horiz-adv-x="467" d="M-14 1493h94l397 -1534h-92zM385 -41z" />
<glyph unicode="]" horiz-adv-x="467" d="M39 -287h170v1626h-170v154h311v-1933h-311v153z" />
<glyph unicode="^" horiz-adv-x="788" d="M74 682l258 778h123l258 -778h-117l-203 606l-203 -606h-116z" />
<glyph unicode="_" d="M-37 -256h1008v-102h-1008v102z" />
<glyph unicode="`" horiz-adv-x="559" d="M37 1516h188l162 -304h-102z" />
<glyph unicode="a" d="M70 281q0 221 186 288q95 34 190 45q115 13 136 19q69 19 69 82v127q-20 133 -213 133q-95 0 -147 -65q-47 -59 -47 -156h-133v53q0 134 106 220q98 79 236 79q125 0 223 -50q123 -62 123 -175v-742q0 -27 23.5 -45.5t50.5 -18.5q14 0 26 5v-109l-119 -18 q-112 34 -123 156q-77 -73 -122 -102q-84 -54 -173 -54q-292 0 -292 328zM215 276q0 -78 41 -134q46 -62 121 -62q124 0 210 92q66 71 66 119v256q-53 -26 -183 -49q-126 -21 -171 -47q-23 -13 -51 -63q-33 -59 -33 -112z" />
<glyph unicode="b" d="M90 0v1493h141v-547q30 57 90 101q81 59 183 59q188 0 291 -190q84 -155 84 -359q0 -239 -77 -397q-101 -207 -315 -207q-158 0 -274 166v-119h-123zM231 522q0 -163 46 -278q65 -160 204 -160q131 0 195 178q45 126 45 285q0 150 -47 267q-63 159 -191 159 q-98 0 -169 -106q-83 -124 -83 -345z" />
<glyph unicode="c" horiz-adv-x="840" d="M51 545q0 214 88 370q107 191 305 191q171 0 266 -113q86 -104 91 -280h-139q-7 109 -56 179q-57 83 -160 83q-125 0 -192 -168q-49 -125 -49 -272q0 -166 42 -282q62 -169 199 -169q179 0 220 287h135q-7 -217 -128 -327q-101 -91 -251 -91q-203 0 -299 207 q-72 155 -72 385z" />
<glyph unicode="d" d="M45 541q0 215 78 369q100 196 295 196q191 0 272 -162v549h141v-1493h-122v123q-88 -170 -273 -170q-210 0 -312 200q-79 155 -79 388zM203 532q0 -175 56 -301q65 -147 181 -147q137 0 202 160q48 118 48 282q0 220 -82 343q-71 106 -170 106q-128 0 -190 -169 q-45 -120 -45 -274z" />
<glyph unicode="e" d="M68 530q0 227 90 384q110 192 321 192q210 0 309 -199q75 -151 75 -384q0 -6 -1 -34h-645v-63q0 -109 56 -211q72 -131 192 -131q110 0 175 99q26 39 60 145h144q-63 -375 -377 -375q-220 0 -321 189q-78 147 -78 388zM217 621h492q0 138 -50 234q-63 122 -188 122 q-216 0 -254 -356z" />
<glyph unicode="f" horiz-adv-x="467" d="M31 944v131h119v182q0 102 50 169q56 74 155 74q38 0 79 -9v-117q-28 4 -47 4q-96 0 -96 -118v-185h141v-131h-141v-944h-141v944h-119z" />
<glyph unicode="g" d="M49 524q0 222 78 379q101 203 301 203q178 0 252 -162v131h141v-893q0 -300 -60 -434q-89 -199 -345 -199q-145 0 -236 91.5t-100 236.5h141q5 -67 43 -122q56 -81 164 -81q192 0 234 230q18 100 18 225q-36 -65 -99 -110q-80 -58 -173 -58q-185 0 -283 200 q-76 157 -76 363zM201 520q0 -154 44 -272q61 -164 189 -164q140 0 202 159q44 112 44 277q0 162 -42 282q-61 173 -194 173q-97 0 -161 -92q-82 -118 -82 -363z" />
<glyph unicode="h" d="M117 0v1493h141v-547q112 160 270 160q131 0 209 -79t78 -210v-817h-139v748q0 82 -43 149q-49 78 -127 78q-103 0 -177 -88q-71 -84 -71 -189v-698h-141z" />
<glyph unicode="i" horiz-adv-x="373" d="M111 0v1075h141v-1075h-141zM111 1280v213h141v-213h-141z" />
<glyph unicode="j" horiz-adv-x="373" d="M-31 -324l82 11q66 9 66 90v1298h141v-1311q0 -55 -27 -106q-35 -65 -104 -92q-44 -17 -110 -17q-24 0 -48 2v125zM117 1280v213h141v-213h-141z" />
<glyph unicode="k" horiz-adv-x="840" d="M98 0v1493h140v-872h63l324 454h159l-356 -495l416 -580h-166l-354 489h-86v-489h-140z" />
<glyph unicode="l" horiz-adv-x="373" d="M115 0v1493h141v-1493h-141z" />
<glyph unicode="m" horiz-adv-x="1399" d="M119 0v1075h141v-137q74 168 260 168q184 0 238 -162q40 77 87 112q68 50 181 50q256 0 256 -266v-840h-141v813q0 74 -47.5 118t-122.5 44q-90 0 -146 -72q-53 -66 -53 -158v-745h-141v788q0 81 -41 132q-44 55 -123 55q-94 0 -153 -84q-54 -76 -54 -174v-717h-141z" />
<glyph unicode="n" d="M117 0v1075h141v-135q73 166 277 166q131 0 206.5 -79.5t75.5 -211.5v-815h-141v772q0 87 -44 143q-47 60 -132 60q-133 0 -195 -131q-47 -98 -47 -248v-596h-141z" />
<glyph unicode="o" d="M61 530q0 234 81 384q103 192 317 192q215 0 317 -191q80 -149 80 -385t-80 -385q-102 -192 -317 -192q-216 0 -318 191q-80 150 -80 386zM205 530q0 -171 61 -298q71 -148 193 -148t193 148q61 127 61 298q0 167 -62 296q-72 149 -192 149q-140 0 -206 -163 q-48 -118 -48 -282z" />
<glyph unicode="p" d="M90 -449v1524h123v-135q40 75 114 120.5t158 45.5q199 0 304 -185q90 -158 90 -407q0 -211 -81 -366q-102 -195 -294 -195q-189 0 -273 162v-564h-141zM231 559q0 -165 45 -286q65 -171 203 -171q135 0 197 158q45 113 45 272q0 157 -48 278q-66 165 -200 165 q-116 0 -185 -148q-57 -123 -57 -268z" />
<glyph unicode="q" d="M45 528q0 222 83 380q105 198 308 198q190 0 273 -166v135h122v-1524h-141v564q-81 -162 -272 -162q-196 0 -296 201q-77 156 -77 374zM201 518q0 -146 48 -261q65 -155 191 -155q136 0 203 168q49 122 49 281q0 155 -50 270q-67 154 -202 154q-129 0 -193 -175 q-46 -126 -46 -282z" />
<glyph unicode="r" horiz-adv-x="559" d="M117 0v1075h141v-168q84 187 203 199h78v-160q-75 0 -133 -24q-148 -82 -148 -342v-580h-141z" />
<glyph unicode="s" horiz-adv-x="840" d="M57 317h133q6 -90 52 -155q60 -84 172 -84q219 0 219 188q0 130 -96 158q-175 51 -293 100q-166 70 -166 269q0 143 92 228t236 85q322 0 327 -332h-139q0 201 -201 201q-70 0 -124 -54t-54 -124q0 -111 104 -156q7 -3 177 -55q128 -39 178 -76q98 -72 98 -225 q0 -157 -100 -247q-95 -87 -254 -87q-361 0 -361 366z" />
<glyph unicode="t" horiz-adv-x="467" d="M23 944v131h122v291h142v-291h139v-131h-139v-797q0 -63 74 -63q27 0 65 8v-125q-70 -15 -110 -15q-72 0 -120 40q-51 43 -51 114v838h-122z" />
<glyph unicode="u" d="M109 307v768h141v-788q0 -87 40 -141q44 -62 128 -62q120 0 190 107q60 92 60 219v665h141v-1075h-141v115q-91 -162 -279 -162q-280 0 -280 354z" />
<glyph unicode="v" horiz-adv-x="840" d="M16 1075h158l229 -870l254 870h158l-336 -1075h-153z" />
<glyph unicode="w" horiz-adv-x="1212" d="M10 1075h158l174 -837l170 837h174l164 -835l182 835h158l-260 -1075h-160l-178 817l-170 -817h-160z" />
<glyph unicode="x" horiz-adv-x="840" d="M29 0l309 551l-291 524h160l213 -379l213 379h158l-299 -522l303 -553h-158l-223 401l-226 -401h-159z" />
<glyph unicode="y" horiz-adv-x="840" d="M33 1075h149l226 -813l243 813h152l-400 -1323q-60 -201 -229 -201h-3q-48 0 -83 27v129q42 -19 77 -19q65 0 105 126l54 170z" />
<glyph unicode="z" horiz-adv-x="840" d="M51 0v141l537 805h-500v129h660v-149l-527 -795h547v-131h-717z" />
<glyph unicode="{" horiz-adv-x="561" d="M72 459v141q87 22 116 112q11 33 17 169l-1 362q0 106 50 180q44 66 86 68l123 6v-135l-74 -10q-59 -8 -59 -131v-363q0 -209 -121 -330q121 -120 121 -327v-363q0 -125 59 -133l74 -10v-133l-123 6q-42 2 -86 67q-50 74 -50 181l1 361q0 117 -17 170q-29 90 -116 112z " />
<glyph unicode="|" horiz-adv-x="436" d="M168 -440v1933h100v-1933h-100z" />
<glyph unicode="}" horiz-adv-x="561" d="M49 -303l74 10q59 8 59 131v363q0 220 123 327q-123 123 -123 330v363q0 123 -59 131l-74 10v135l123 -6q42 -2 86 -67q49 -72 49 -181v-362q0 -116 17 -169q29 -90 116 -112v-141q-87 -22 -116 -112q-17 -53 -17 -170v-361q0 -109 -49 -181q-44 -65 -86 -67l-123 -6v135 z" />
<glyph unicode="~" horiz-adv-x="981" d="M127 596q4 180 76 255q44 46 103 46q50 0 87 -27l219 -161q31 -23 65 -23q89 0 89 125q0 16 -2 31h88q1 -15 1 -29q0 -92 -43 -172q-52 -97 -136 -97q-59 0 -129 54l-180 139q-30 29 -59 29q-44 0 -70 -55q-20 -43 -20 -93q0 -11 1 -22h-90z" />
<glyph unicode="&#xa3;" d="M43 655v113h141q-53 95 -69 139q-25 69 -25 158q0 162 112 289q118 133 280 133q208 0 300 -143q70 -109 80 -328h-147q-10 147 -47 219q-54 106 -182 106q-80 0 -150 -63q-86 -78 -86 -209q0 -104 98 -301h268v-113h-235q22 -99 22 -129q0 -54 -22 -116 q-36 -101 -91 -175l-87 -110q95 60 214 60q64 0 146 -29q93 -33 133 -33q42 0 142 67l61 -120q-88 -114 -220 -114q-77 0 -241 69q-59 25 -115 25q-57 0 -113 -29l-75 -48l-80 136q212 210 212 393q0 62 -40 153h-184z" />
<glyph unicode="&#xa4;" d="M113 1008l90 96l98 -100q96 56 165 56q67 0 163 -56l94 90l98 -105l-98 -112q50 -85 50 -189q0 -70 -56 -182l96 -117l-98 -92l-88 92q-88 -68 -165 -68q-67 0 -159 52l-92 -84l-92 100l84 105q-56 84 -56 201q0 126 64 190zM285 690q0 -199 179 -199q77 0 124 66 q41 59 41 139q0 84 -45 137q-48 56 -131 56q-82 0 -127 -60q-41 -54 -41 -139z" />
<glyph unicode="&#xa7;" d="M73 641q0 116 44 184q36 55 139 127q-81 81 -81 209q0 125 88 227q92 105 216 105q149 0 231 -108q74 -97 74 -250q0 -33 -4 -62h-139l3 58q0 85 -41 150q-47 76 -127 76q-75 0 -117 -67q-35 -56 -35 -136q0 -77 137 -177l227 -166q163 -124 163 -356q0 -146 -78 -236 q-51 -59 -103 -72q85 -132 85 -230q0 -150 -83 -250q-89 -107 -236 -107q-140 0 -230 116q-83 108 -83 252q0 25 4 43h145q-1 -13 -1 -27q0 -89 40 -158q48 -82 128 -82q76 0 123 61q43 56 43 134q0 93 -79 167l-304 240q-149 120 -149 335zM209 667q0 -74 42 -136 q13 -19 71 -80q47 -50 274 -234q32 17 67 68q48 69 48 141q0 129 -103 219l-274 240q-71 -62 -91 -93q-34 -51 -34 -125z" />
<glyph unicode="&#xa9;" horiz-adv-x="1638" d="M49 721q0 330 221 553t551 223q323 0 545.5 -221t222.5 -543q0 -323 -222.5 -545.5t-545.5 -222.5q-316 0 -544 220.5t-228 535.5zM188 748q0 -284 173 -474q179 -196 460 -196q273 0 453 192q176 188 176 463q0 273 -177 460q-180 191 -452 191q-265 0 -449 -185.5 t-184 -450.5zM391 733q0 206 121 335.5t326 129.5q246 0 344 -182q28 -51 43 -129h-129q-51 198 -258 198q-145 0 -230 -102q-78 -95 -78 -244t82 -252q88 -112 234 -112q205 0 250 209h131q-35 -121 -82 -181q-110 -141 -307 -141q-202 0 -326 136q-121 131 -121 335z" />
<glyph unicode="&#xaa;" d="M70 281q0 221 186 288q95 34 190 45q115 13 136 19q69 19 69 82v127q-20 133 -213 133q-95 0 -147 -65q-47 -59 -47 -156h-133v53q0 134 106 220q98 79 236 79q125 0 223 -50q123 -62 123 -175v-742q0 -27 23.5 -45.5t50.5 -18.5q14 0 26 5v-109l-119 -18 q-112 34 -123 156q-77 -73 -122 -102q-84 -54 -173 -54q-292 0 -292 328zM215 276q0 -78 41 -134q46 -62 121 -62q124 0 210 92q66 71 66 119v256q-53 -26 -183 -49q-126 -21 -171 -47q-23 -13 -51 -63q-33 -59 -33 -112z" />
<glyph unicode="&#xab;" d="M164 469v178l264 250v-172l-180 -168l180 -168v-172zM504 469v178l260 250v-172l-172 -168l172 -168v-172z" />
<glyph unicode="&#xac;" horiz-adv-x="981" d="M68 565v156h845v-553h-127v397h-718z" />
<glyph unicode="&#xad;" horiz-adv-x="559" d="M78 512v129h399v-129h-399z" />
<glyph unicode="&#xae;" horiz-adv-x="1638" d="M49 721q0 330 221 553t551 223q323 0 545.5 -221t222.5 -543q0 -323 -222.5 -545.5t-545.5 -222.5q-316 0 -544 220.5t-228 535.5zM188 748q0 -284 173 -474q179 -196 460 -196q273 0 453 192q176 188 176 463q0 274 -176 461q-180 190 -453 190q-266 0 -449.5 -185 t-183.5 -451zM522 285v895h346q314 0 314 -254q0 -211 -236 -246l256 -395h-149l-244 385h-147v-385h-140zM662 782h145q114 0 161 20q74 32 74 128q0 137 -196 137h-184v-285z" />
<glyph unicode="&#xb0;" horiz-adv-x="672" d="M84 1148q0 115 66 204q73 100 186 100q112 0 186 -100q66 -91 66 -207q0 -117 -66 -207q-73 -100 -186 -100t-186 100q-66 90 -66 210zM152 1147q0 -96 53.5 -161.5t130.5 -65.5q82 0 136 73q48 67 48 152t-49 152q-55 73 -137 73t-134 -73q-48 -65 -48 -150z" />
<glyph unicode="&#xb1;" horiz-adv-x="981" d="M68 0v123h845v-123h-845zM84 692v109h348v383h117v-383h348v-109h-348v-383h-117v383h-348z" />
<glyph unicode="&#xb2;" d="M57 0q19 234 58 328q63 150 254 284l176 123q164 115 164 303q0 112 -57 189q-63 86 -171 86q-137 0 -202 -121q-52 -95 -52 -244h-143q0 504 397 504q178 0 282 -131q95 -119 95 -293q0 -258 -240 -424l-192 -133q-52 -36 -115 -111q-97 -115 -96 -202h633v-158h-791z " />
<glyph unicode="&#xb3;" d="M53 422h142q0 -106 31 -184q56 -142 198 -142q274 0 274 328q0 259 -266 259q-29 0 -61 -3v133q153 0 213 43q75 54 75 207q0 106 -57 174q-61 74 -164 74q-117 0 -174 -112q-43 -86 -43 -216h-141q6 469 364 469q182 0 280 -118q91 -110 91 -296q0 -207 -143 -288 q178 -97 178 -349q0 -187 -103 -313q-111 -135 -294 -135q-209 0 -314 150q-86 123 -86 319z" />
<glyph unicode="&#xb5;" d="M109 -449v1524h141v-780q0 -202 173 -202q245 0 245 378v604h141v-1075h-141v115q-91 -162 -279 -162q-98 0 -139 24v-426h-141z" />
<glyph unicode="&#x3bc;" d="M109 -449v1524h141v-780q0 -202 173 -202q245 0 245 378v604h141v-1075h-141v115q-91 -162 -279 -162q-98 0 -139 24v-426h-141z" />
<glyph unicode="&#xb6;" horiz-adv-x="901" d="M80 997q0 97 31 197q49 157 167 239q86 60 162 60h437v-133h-99v-1725h-108v1725h-135v-1725h-111v893q-19 2 -55 7q-132 22 -215 174q-74 135 -74 288z" />
<glyph unicode="&#xb9;" d="M172 1057v106q177 34 224 78q44 41 87 211h101v-1452h-142v1057h-270z" />
<glyph unicode="&#xba;" d="M61 530q0 234 81 384q103 192 317 192q215 0 317 -191q80 -149 80 -385t-80 -385q-102 -192 -317 -192q-216 0 -318 191q-80 150 -80 386zM205 530q0 -171 61 -298q71 -148 193 -148t193 148q61 127 61 298q0 167 -62 296q-72 149 -192 149q-140 0 -206 -163 q-48 -118 -48 -282z" />
<glyph unicode="&#xbb;" d="M164 217v172l184 168l-176 168v172l246 -250v-178zM500 217v172l180 168l-178 168v172l256 -250v-178z" />
<glyph unicode="&#xc0;" horiz-adv-x="1120" d="M29 0l444 1493h193l430 -1493h-176l-127 459h-461l-135 -459h-168zM271 1944h188l162 -304h-102zM369 606h381l-181 654z" />
<glyph unicode="&#xc2;" horiz-adv-x="1120" d="M29 0l444 1493h193l430 -1493h-176l-127 459h-461l-135 -459h-168zM250 1640l258 778h123l258 -778h-117l-203 606l-203 -606h-116zM369 606h381l-181 654z" />
<glyph unicode="&#xc3;" horiz-adv-x="1120" d="M29 0l444 1493h193l430 -1493h-176l-127 459h-461l-135 -459h-168zM207 1692q4 180 76 255q44 46 103 46q50 0 87 -27l219 -161q31 -23 65 -23q89 0 89 125q0 16 -2 31h88q1 -15 1 -29q0 -92 -43 -172q-52 -97 -136 -97q-59 0 -129 54l-180 139q-30 29 -59 29 q-44 0 -70 -55q-20 -43 -20 -93q0 -11 1 -22h-90zM369 606h381l-181 654z" />
<glyph unicode="&#xc5;" horiz-adv-x="1120" d="M29 0l444 1493h193l430 -1493h-176l-127 459h-461l-135 -459h-168zM318 1808q0 115 66 204q73 100 186 100q112 0 186 -100q66 -91 66 -207q0 -117 -66 -207q-73 -100 -186 -100t-186 100q-66 90 -66 210zM369 606h381l-181 654zM386 1807q0 -96 53.5 -161.5t130.5 -65.5 q82 0 136 73q48 67 48 152t-49 152q-55 73 -137 73t-134 -73q-48 -65 -48 -150z" />
<glyph unicode="&#xc8;" horiz-adv-x="1120" d="M152 0v1493h849v-150h-692v-491h666v-150h-666v-552h721v-150h-878zM277 1944h188l162 -304h-102z" />
<glyph unicode="&#xca;" horiz-adv-x="1120" d="M152 0v1493h849v-150h-692v-491h666v-150h-666v-552h721v-150h-878zM257 1640l258 778h123l258 -778h-117l-203 606l-203 -606h-116z" />
<glyph unicode="&#xcc;" horiz-adv-x="467" d="M-52 1944h188l162 -304h-102zM168 0v1493h158v-1493h-158z" />
<glyph unicode="&#xce;" horiz-adv-x="467" d="M-72 1640l258 778h123l258 -778h-117l-203 606l-203 -606h-116zM168 0v1493h158v-1493h-158z" />
<glyph unicode="&#xd1;" horiz-adv-x="1212" d="M127 0v1493h186l615 -1208v1208h157v-1493h-180l-620 1196v-1196h-158zM243 1692q4 180 76 255q44 46 103 46q50 0 87 -27l219 -161q31 -23 65 -23q89 0 89 125q0 16 -2 31h88q1 -15 1 -29q0 -92 -43 -172q-52 -97 -136 -97q-59 0 -129 54l-180 139q-30 29 -59 29 q-44 0 -70 -55q-20 -43 -20 -93q0 -11 1 -22h-90z" />
<glyph unicode="&#xd2;" horiz-adv-x="1307" d="M63 725q0 311 135 531q161 262 457 262q292 0 453 -256q137 -217 137 -527q0 -305 -137 -524q-162 -258 -453 -258q-288 0 -451 251q-141 217 -141 521zM223 735q0 -240 96 -416q117 -215 336 -215q220 0 336 215q94 174 94 416t-94 416q-116 215 -336 215 q-219 0 -336 -215q-96 -176 -96 -416zM356 1944h188l162 -304h-102z" />
<glyph unicode="&#xd4;" horiz-adv-x="1307" d="M63 725q0 311 135 531q161 262 457 262q292 0 453 -256q137 -217 137 -527q0 -305 -137 -524q-162 -258 -453 -258q-288 0 -451 251q-141 217 -141 521zM223 735q0 -240 96 -416q117 -215 336 -215q220 0 336 215q94 174 94 416t-94 416q-116 215 -336 215 q-219 0 -336 -215q-96 -176 -96 -416zM336 1640l258 778h123l258 -778h-117l-203 606l-203 -606h-116z" />
<glyph unicode="&#xd5;" horiz-adv-x="1307" d="M63 725q0 311 135 531q161 262 457 262q292 0 453 -256q137 -217 137 -527q0 -305 -137 -524q-162 -258 -453 -258q-288 0 -451 251q-141 217 -141 521zM223 735q0 -240 96 -416q117 -215 336 -215q220 0 336 215q94 174 94 416t-94 416q-116 215 -336 215 q-219 0 -336 -215q-96 -176 -96 -416zM292 1692q4 180 76 255q44 46 103 46q50 0 87 -27l219 -161q31 -23 65 -23q89 0 89 125q0 16 -2 31h88q1 -15 1 -29q0 -92 -43 -172q-52 -97 -136 -97q-59 0 -129 54l-180 139q-30 29 -59 29q-44 0 -70 -55q-20 -43 -20 -93 q0 -11 1 -22h-90z" />
<glyph unicode="&#xd9;" horiz-adv-x="1212" d="M143 416v1077h158v-1077q0 -113 66 -200q85 -112 245 -112q163 0 248 112q66 87 66 200v1077h157v-1077q0 -161 -98 -292q-128 -171 -373 -171q-244 0 -372 171q-97 129 -97 292zM314 1944h188l162 -304h-102z" />
<glyph unicode="&#xdb;" horiz-adv-x="1212" d="M143 416v1077h158v-1077q0 -113 66 -200q85 -112 245 -112q163 0 248 112q66 87 66 200v1077h157v-1077q0 -161 -98 -292q-128 -171 -373 -171q-244 0 -372 171q-97 129 -97 292zM294 1640l258 778h123l258 -778h-117l-203 606l-203 -606h-116z" />
<glyph unicode="&#xe0;" d="M70 281q0 221 186 288q95 34 190 45q115 13 136 19q69 19 69 82v127q-20 133 -213 133q-95 0 -147 -65q-47 -59 -47 -156h-133v53q0 134 106 220q98 79 236 79q125 0 223 -50q123 -62 123 -175v-742q0 -27 23.5 -45.5t50.5 -18.5q14 0 26 5v-109l-119 -18 q-112 34 -123 156q-77 -73 -122 -102q-84 -54 -173 -54q-292 0 -292 328zM154 1532h188l162 -304h-102zM215 276q0 -78 41 -134q46 -62 121 -62q124 0 210 92q66 71 66 119v256q-53 -26 -183 -49q-126 -21 -171 -47q-23 -13 -51 -63q-33 -59 -33 -112z" />
<glyph unicode="&#xe2;" d="M70 281q0 221 186 288q95 34 190 45q115 13 136 19q69 19 69 82v127q-20 133 -213 133q-95 0 -147 -65q-47 -59 -47 -156h-133v53q0 134 106 220q98 79 236 79q125 0 223 -50q123 -62 123 -175v-742q0 -27 23.5 -45.5t50.5 -18.5q14 0 26 5v-109l-119 -18 q-112 34 -123 156q-77 -73 -122 -102q-84 -54 -173 -54q-292 0 -292 328zM134 1228l258 778h123l258 -778h-117l-203 606l-203 -606h-116zM215 276q0 -78 41 -134q46 -62 121 -62q124 0 210 92q66 71 66 119v256q-53 -26 -183 -49q-126 -21 -171 -47q-23 -13 -51 -63 q-33 -59 -33 -112z" />
<glyph unicode="&#xe3;" d="M70 281q0 221 186 288q95 34 190 45q115 13 136 19q69 19 69 82v127q-20 133 -213 133q-95 0 -147 -65q-47 -59 -47 -156h-133v53q0 134 106 220q98 79 236 79q125 0 223 -50q123 -62 123 -175v-742q0 -27 23.5 -45.5t50.5 -18.5q14 0 26 5v-109l-119 -18 q-112 34 -123 156q-77 -73 -122 -102q-84 -54 -173 -54q-292 0 -292 328zM90 1280q4 180 76 255q44 46 103 46q50 0 87 -27l219 -161q31 -23 65 -23q89 0 89 125q0 16 -2 31h88q1 -15 1 -29q0 -92 -43 -172q-52 -97 -136 -97q-59 0 -129 54l-180 139q-30 29 -59 29 q-44 0 -70 -55q-20 -43 -20 -93q0 -11 1 -22h-90zM215 276q0 -78 41 -134q46 -62 121 -62q124 0 210 92q66 71 66 119v256q-53 -26 -183 -49q-126 -21 -171 -47q-23 -13 -51 -63q-33 -59 -33 -112z" />
<glyph unicode="&#xe5;" d="M70 281q0 221 186 288q95 34 190 45q115 13 136 19q69 19 69 82v127q-20 133 -213 133q-95 0 -147 -65q-47 -59 -47 -156h-133v53q0 134 106 220q98 79 236 79q125 0 223 -50q123 -62 123 -175v-742q0 -27 23.5 -45.5t50.5 -18.5q14 0 26 5v-109l-119 -18 q-112 34 -123 156q-77 -73 -122 -102q-84 -54 -173 -54q-292 0 -292 328zM201 1538q0 115 66 204q73 100 186 100q112 0 186 -100q66 -91 66 -207q0 -117 -66 -207q-73 -100 -186 -100t-186 100q-66 90 -66 210zM215 276q0 -78 41 -134q46 -62 121 -62q124 0 210 92 q66 71 66 119v256q-53 -26 -183 -49q-126 -21 -171 -47q-23 -13 -51 -63q-33 -59 -33 -112zM269 1537q0 -96 53.5 -161.5t130.5 -65.5q82 0 136 73q48 67 48 152t-49 152q-55 73 -137 73t-134 -73q-48 -65 -48 -150z" />
<glyph unicode="&#xe8;" d="M68 530q0 227 90 384q110 192 321 192q210 0 309 -199q75 -151 75 -384q0 -6 -1 -34h-645v-63q0 -109 56 -211q72 -131 192 -131q110 0 175 99q26 39 60 145h144q-63 -375 -377 -375q-220 0 -321 189q-78 147 -78 388zM180 1532h188l162 -304h-102zM217 621h492 q0 138 -50 234q-63 122 -188 122q-216 0 -254 -356z" />
<glyph unicode="&#xea;" d="M68 530q0 227 90 384q110 192 321 192q210 0 309 -199q75 -151 75 -384q0 -6 -1 -34h-645v-63q0 -109 56 -211q72 -131 192 -131q110 0 175 99q26 39 60 145h144q-63 -375 -377 -375q-220 0 -321 189q-78 147 -78 388zM160 1228l258 778h123l258 -778h-117l-203 606 l-203 -606h-116zM217 621h492q0 138 -50 234q-63 122 -188 122q-216 0 -254 -356z" />
<glyph unicode="&#xec;" horiz-adv-x="373" d="M-117 1919h188l162 -304h-102zM111 0v1075h141v-1075h-141zM111 1280v213h141v-213h-141z" />
<glyph unicode="&#xee;" horiz-adv-x="373" d="M-138 1615l258 778h123l258 -778h-117l-203 606l-203 -606h-116zM111 0v1075h141v-1075h-141zM111 1280v213h141v-213h-141z" />
<glyph unicode="&#xf1;" d="M104 1280q4 180 76 255q44 46 103 46q50 0 87 -27l219 -161q31 -23 65 -23q89 0 89 125q0 16 -2 31h88q1 -15 1 -29q0 -92 -43 -172q-52 -97 -136 -97q-59 0 -129 54l-180 139q-30 29 -59 29q-44 0 -70 -55q-20 -43 -20 -93q0 -11 1 -22h-90zM117 0v1075h141v-135 q73 166 277 166q131 0 206.5 -79.5t75.5 -211.5v-815h-141v772q0 87 -44 143q-47 60 -132 60q-133 0 -195 -131q-47 -98 -47 -248v-596h-141z" />
<glyph unicode="&#xf2;" d="M61 530q0 234 81 384q103 192 317 192q215 0 317 -191q80 -149 80 -385t-80 -385q-102 -192 -317 -192q-216 0 -318 191q-80 150 -80 386zM160 1532h188l162 -304h-102zM205 530q0 -171 61 -298q71 -148 193 -148t193 148q61 127 61 298q0 167 -62 296q-72 149 -192 149 q-140 0 -206 -163q-48 -118 -48 -282z" />
<glyph unicode="&#xf4;" d="M61 530q0 234 81 384q103 192 317 192q215 0 317 -191q80 -149 80 -385t-80 -385q-102 -192 -317 -192q-216 0 -318 191q-80 150 -80 386zM140 1228l258 778h123l258 -778h-117l-203 606l-203 -606h-116zM205 530q0 -171 61 -298q71 -148 193 -148t193 148q61 127 61 298 q0 167 -62 296q-72 149 -192 149q-140 0 -206 -163q-48 -118 -48 -282z" />
<glyph unicode="&#xf5;" d="M61 530q0 234 81 384q103 192 317 192q215 0 317 -191q80 -149 80 -385t-80 -385q-102 -192 -317 -192q-216 0 -318 191q-80 150 -80 386zM96 1280q4 180 76 255q44 46 103 46q50 0 87 -27l219 -161q31 -23 65 -23q89 0 89 125q0 16 -2 31h88q1 -15 1 -29q0 -92 -43 -172 q-52 -97 -136 -97q-59 0 -129 54l-180 139q-30 29 -59 29q-44 0 -70 -55q-20 -43 -20 -93q0 -11 1 -22h-90zM205 530q0 -171 61 -298q71 -148 193 -148t193 148q61 127 61 298q0 167 -62 296q-72 149 -192 149q-140 0 -206 -163q-48 -118 -48 -282z" />
<glyph unicode="&#xf7;" horiz-adv-x="981" d="M84 403v144h813v-144h-813zM403 -20v213h175v-213h-175zM403 758v213h175v-213h-175z" />
<glyph unicode="&#xf9;" d="M109 307v768h141v-788q0 -87 40 -141q44 -62 128 -62q120 0 190 107q60 92 60 219v665h141v-1075h-141v115q-91 -162 -279 -162q-280 0 -280 354zM160 1532h188l162 -304h-102z" />
<glyph unicode="&#xfb;" d="M109 307v768h141v-788q0 -87 40 -141q44 -62 128 -62q120 0 190 107q60 92 60 219v665h141v-1075h-141v115q-91 -162 -279 -162q-280 0 -280 354zM140 1228l258 778h123l258 -778h-117l-203 606l-203 -606h-116z" />
<glyph unicode="&#x152;" horiz-adv-x="2427" d="M63 725q0 311 135 531q161 262 457 262q292 0 453 -256q137 -217 137 -527q0 -305 -137 -524q-162 -258 -453 -258q-288 0 -451 251q-141 217 -141 521zM223 735q0 -240 96 -416q117 -215 336 -215q220 0 336 215q94 174 94 416t-94 416q-116 215 -336 215 q-219 0 -336 -215q-96 -176 -96 -416zM1459 0v1493h849v-150h-692v-491h666v-150h-666v-552h721v-150h-878z" />
<glyph unicode="&#x153;" horiz-adv-x="1868" d="M61 530q0 234 81 384q103 192 317 192q215 0 317 -191q80 -149 80 -385t-80 -385q-102 -192 -317 -192q-216 0 -318 191q-80 150 -80 386zM205 530q0 -171 61 -298q71 -148 193 -148t193 148q61 127 61 298q0 167 -62 296q-72 149 -192 149q-140 0 -206 -163 q-48 -118 -48 -282zM1002 530q0 227 90 384q110 192 321 192q210 0 309 -199q75 -151 75 -384q0 -6 -1 -34h-645v-63q0 -109 56 -211q72 -131 192 -131q110 0 175 99q26 39 60 145h144q-63 -375 -377 -375q-220 0 -321 189q-78 147 -78 388zM1151 621h492q0 138 -50 234 q-63 122 -188 122q-216 0 -254 -356z" />
<glyph unicode="&#x2c6;" horiz-adv-x="788" d="M74 682l258 778h123l258 -778h-117l-203 606l-203 -606h-116z" />
<glyph unicode="&#x2dc;" horiz-adv-x="467" d="M-363 174q4 180 76 255q44 46 103 46q50 0 87 -27l219 -161q31 -23 65 -23q89 0 89 125q0 16 -2 31h88q1 -15 1 -29q0 -92 -43 -172q-52 -97 -136 -97q-59 0 -129 54l-180 139q-30 29 -59 29q-44 0 -70 -55q-20 -43 -20 -93q0 -11 1 -22h-90z" />
<glyph unicode="&#x2013;" d="M-8 512v129h950v-129h-950z" />
<glyph unicode="&#x2014;" horiz-adv-x="1679" d="M-14 512v129h1695v-129h-1695z" />
<glyph unicode="&#x2018;" horiz-adv-x="373" d="M109 940v217q0 158 61 230q26 30 96 63v-84q-82 -42 -82 -171q0 -19 2 -40h78v-215h-155z" />
<glyph unicode="&#x2019;" horiz-adv-x="373" d="M109 975v80q79 11 79 167v17h-79v211h157v-211q0 -96 -32 -165q-41 -89 -125 -99z" />
<glyph unicode="&#x201c;" horiz-adv-x="559" d="M80 940v217q0 157 62 230q26 31 96 63v-84q-82 -42 -82 -171q0 -19 2 -40h78v-215h-156zM346 940v217q0 156 62 230q25 30 94 63v-82q-80 -42 -80 -172q0 -20 2 -41h76v-215h-154z" />
<glyph unicode="&#x201d;" horiz-adv-x="559" d="M82 975v80q82 12 82 175v9h-82v211h158v-211q0 -96 -32 -165q-42 -89 -126 -99zM350 975v80q80 11 80 167v17h-80v211h158v-211q0 -95 -33 -165q-42 -89 -125 -99z" />
<glyph unicode="&#x201e;" horiz-adv-x="559" d="M80 0v211h158v-211q0 -95 -33 -165q-42 -89 -125 -99v80q80 11 80 167v17h-80zM346 0v211h158v-211q0 -96 -32 -165q-42 -89 -126 -99v80q80 11 80 167v17h-80z" />
<glyph unicode="&#x2022;" horiz-adv-x="588" d="M84 707q-1 98 56 164q59 71 155 71q95 0 154 -71q55 -67 55 -164t-55 -164q-59 -72 -154 -72q-97 0 -155 71q-55 66 -56 165z" />
<glyph unicode="&#x2026;" horiz-adv-x="1679" d="M193 0v213h176v-213h-176zM752 0v213h176v-213h-176zM1313 0v213h174v-213h-174z" />
<glyph unicode="&#x2039;" horiz-adv-x="981" d="M76 403v144l821 424v-164l-664 -332l664 -332v-163z" />
<glyph unicode="&#x203a;" horiz-adv-x="981" d="M84 -20v163l657 332l-657 332v164l821 -424v-144z" />
<glyph unicode="&#x2122;" horiz-adv-x="1679" d="M106 1395v123h572v-123h-223v-740h-123v740h-226zM803 655v863h180l205 -609l209 609h178v-863h-111v740l-245 -740h-66l-238 740v-740h-112z" />
<glyph unicode="&#xe000;" horiz-adv-x="1075" d="M0 1075h1075v-1075h-1075v1075z" />
<glyph unicode="&#xfb01;" horiz-adv-x="840" d="M31 944v131h119v182q0 102 50 169q56 74 155 74q38 0 79 -9v-117q-28 4 -47 4q-96 0 -96 -118v-185h141v-131h-141v-944h-141v944h-119zM578 0v1075h141v-1075h-141zM578 1280v213h141v-213h-141z" />
<glyph unicode="&#xfb02;" horiz-adv-x="840" d="M31 944v131h119v182q0 102 50 169q56 74 155 74q38 0 79 -9v-117q-28 4 -47 4q-96 0 -96 -118v-185h141v-131h-141v-944h-141v944h-119zM582 0v1493h141v-1493h-141z" />
<glyph unicode="&#xfb03;" horiz-adv-x="1307" d="M31 944v131h119v182q0 102 50 169q56 74 155 74q38 0 79 -9v-117q-28 4 -47 4q-96 0 -96 -118v-185h141v-131h-141v-944h-141v944h-119zM498 944v131h119v182q0 102 50 169q56 74 155 74q38 0 79 -9v-117q-28 4 -47 4q-96 0 -96 -118v-185h141v-131h-141v-944h-141v944 h-119zM1045 0v1075h141v-1075h-141zM1045 1280v213h141v-213h-141z" />
<glyph unicode="&#xfb04;" horiz-adv-x="1307" d="M31 944v131h119v182q0 102 50 169q56 74 155 74q38 0 79 -9v-117q-28 4 -47 4q-96 0 -96 -118v-185h141v-131h-141v-944h-141v944h-119zM498 944v131h119v182q0 102 50 169q56 74 155 74q38 0 79 -9v-117q-28 4 -47 4q-96 0 -96 -118v-185h141v-131h-141v-944h-141v944 h-119zM1049 0v1493h141v-1493h-141z" />
</font>
</defs>
</svg>
